<?xml version="1.0" standalone="no"?>
<!DOCTYPE svg PUBLIC "-//W3C//DTD SVG 20010904//EN"
 "http://www.w3.org/TR/2001/REC-SVG-20010904/DTD/svg10.dtd">
<svg version="1.0" xmlns="http://www.w3.org/2000/svg"
 width="397.000000pt" height="82.000000pt" viewBox="0 0 397.000000 82.000000"
 preserveAspectRatio="xMidYMid meet">

<g transform="translate(0.000000,82.000000) scale(0.100000,-0.100000)"
fill="#000000" stroke="none">
<path d="M3390 801 c-5 -11 -10 -61 -10 -111 0 -84 -2 -91 -17 -85 -47 19 -89
26 -122 20 -145 -26 -221 -183 -148 -307 80 -137 274 -137 354 0 28 47 28 48
31 254 2 138 0 214 -8 227 -14 28 -65 29 -80 2z m-61 -285 c31 -17 51 -54 51
-96 0 -86 -83 -135 -165 -98 -71 32 -73 156 -4 194 32 18 83 17 118 0z"/>
<path d="M32 780 c-16 -7 -22 -18 -22 -40 0 -37 27 -50 101 -50 l49 0 0 -209
c0 -115 4 -221 10 -235 14 -37 66 -37 80 0 6 14 10 120 10 235 l0 209 49 0
c74 0 101 13 101 50 0 24 -6 33 -26 40 -32 12 -321 12 -352 0z"/>
<path d="M1111 758 c-9 -24 0 -53 112 -349 72 -193 71 -191 110 -187 31 3 34
8 76 111 24 59 47 104 51 100 4 -4 24 -52 45 -106 40 -104 61 -127 98 -103 17
10 104 220 185 444 29 81 25 105 -20 110 -36 4 -42 -6 -138 -263 -23 -60 -44
-112 -46 -114 -4 -4 -15 20 -69 151 -46 111 -83 99 -140 -47 -37 -92 -48 -108
-58 -82 -98 263 -123 325 -135 340 -22 25 -61 22 -71 -5z"/>
<path d="M604 621 c-179 -44 -216 -285 -58 -377 181 -106 386 99 280 280 -43
74 -141 117 -222 97z m105 -105 c31 -17 51 -54 51 -96 0 -86 -83 -135 -165
-98 -71 32 -73 156 -4 194 32 18 83 17 118 0z"/>
<path d="M2344 621 c-54 -13 -103 -51 -132 -99 -27 -46 -27 -50 -30 -247 -4
-228 1 -255 48 -255 40 0 50 27 50 137 0 77 2 84 18 78 147 -61 295 32 295
185 0 131 -125 231 -249 201z m105 -105 c31 -17 51 -54 51 -96 0 -86 -83 -135
-165 -98 -71 32 -73 156 -4 194 32 18 83 17 118 0z"/>
<path d="M2784 621 c-152 -37 -209 -226 -105 -345 46 -52 159 -76 228 -47 27
11 35 11 55 -3 29 -20 34 -20 58 4 17 17 20 33 20 113 0 104 -10 149 -43 198
-41 61 -140 98 -213 80z m105 -105 c58 -31 71 -128 22 -177 -49 -49 -146 -36
-177 22 -25 50 -18 97 20 135 38 38 85 45 135 20z"/>
<path d="M3658 621 c-109 -35 -176 -147 -149 -248 33 -120 151 -187 264 -148
43 14 49 14 69 0 29 -19 34 -19 58 5 17 17 20 33 20 113 0 104 -10 149 -43
198 -42 62 -150 102 -219 80z m111 -105 c58 -31 71 -128 22 -177 -49 -49 -146
-36 -177 22 -25 50 -18 97 20 135 38 38 85 45 135 20z"/>
<path d="M1830 594 c-13 -34 -13 -209 1 -259 23 -81 117 -137 194 -116 l35 9
0 -39 c0 -79 -85 -109 -138 -49 -39 44 -92 39 -92 -10 0 -57 77 -113 155 -112
90 1 149 48 166 133 11 61 11 412 -1 443 -7 20 -16 26 -40 26 -42 0 -50 -26
-50 -161 0 -123 -12 -149 -70 -149 -58 0 -70 26 -70 149 0 135 -8 161 -50 161
-24 0 -33 -6 -40 -26z"/>
</g>
</svg>
