<?xml version="1.0" standalone="no"?>
<!DOCTYPE svg PUBLIC "-//W3C//DTD SVG 20010904//EN"
 "http://www.w3.org/TR/2001/REC-SVG-20010904/DTD/svg10.dtd">
<svg version="1.0" xmlns="http://www.w3.org/2000/svg"
 width="206.000000pt" height="81.000000pt" viewBox="0 0 206.000000 81.000000"
 preserveAspectRatio="xMidYMid meet">

<g transform="translate(0.000000,81.000000) scale(0.100000,-0.100000)"
fill="#000000" stroke="none">
<path d="M1697 664 c-4 -4 -7 -31 -7 -61 0 -50 -1 -53 -19 -43 -60 31 -141
-20 -141 -89 0 -52 48 -101 100 -101 34 0 76 27 89 57 15 36 11 235 -5 240 -5
2 -13 0 -17 -3z m-27 -154 c11 -11 20 -29 20 -40 0 -26 -34 -60 -60 -60 -11 0
-29 9 -40 20 -11 11 -20 29 -20 40 0 11 9 29 20 40 11 11 29 20 40 20 11 0 29
-9 40 -20z"/>
<path d="M5 640 c-11 -18 5 -30 40 -30 l34 0 3 -117 c2 -97 6 -118 18 -118 12
0 16 21 18 117 l3 117 37 3 c25 2 37 8 37 18 0 12 -18 16 -92 18 -55 2 -94 -1
-98 -8z"/>
<path d="M555 638 c-5 -12 61 -203 86 -250 16 -30 29 -21 57 42 l26 61 24 -61
c16 -40 29 -60 39 -58 21 4 118 257 104 271 -18 18 -35 -9 -71 -105 -18 -49
-34 -88 -35 -88 -1 0 -13 27 -25 60 -28 75 -46 76 -75 2 -11 -28 -22 -52 -25
-52 -3 0 -21 41 -40 92 -34 88 -54 115 -65 86z"/>
<path d="M271 556 c-87 -48 -50 -186 49 -186 51 0 100 49 100 99 0 75 -83 124
-149 87z m89 -46 c11 -11 20 -29 20 -40 0 -26 -34 -60 -60 -60 -26 0 -60 34
-60 60 0 11 9 29 20 40 11 11 29 20 40 20 11 0 29 -9 40 -20z"/>
<path d="M917 564 c-4 -4 -7 -38 -7 -76 0 -61 3 -72 26 -94 20 -20 33 -25 60
-22 29 3 34 1 34 -18 0 -12 -7 -27 -15 -34 -16 -13 -65 -6 -65 10 0 6 -9 10
-20 10 -28 0 -25 -25 6 -49 36 -28 79 -27 110 4 24 24 25 28 22 147 -3 101 -6
123 -18 123 -11 0 -16 -17 -20 -69 -4 -51 -10 -72 -22 -80 -34 -21 -52 4 -58
79 -5 63 -16 86 -33 69z"/>
<path d="M1139 555 c-40 -22 -50 -59 -47 -175 2 -85 6 -105 18 -105 11 0 16
15 20 57 4 48 7 56 20 48 37 -24 103 -2 126 41 47 92 -46 183 -137 134z m91
-45 c11 -11 20 -29 20 -40 0 -26 -34 -60 -60 -60 -11 0 -29 9 -40 20 -11 11
-20 29 -20 40 0 11 9 29 20 40 11 11 29 20 40 20 11 0 29 -9 40 -20z"/>
<path d="M1361 556 c-47 -26 -63 -84 -37 -135 23 -43 89 -65 126 -41 9 5 19 5
27 -1 22 -19 33 1 33 56 0 66 -15 102 -51 121 -34 17 -67 17 -98 0z m89 -46
c37 -37 14 -100 -37 -100 -28 0 -63 33 -63 60 0 11 9 29 20 40 11 11 29 20 40
20 11 0 29 -9 40 -20z"/>
<path d="M1801 556 c-47 -26 -63 -84 -37 -135 23 -43 89 -65 126 -41 9 5 19 5
27 -1 22 -19 33 1 33 56 0 66 -15 102 -51 121 -34 17 -67 17 -98 0z m89 -46
c37 -37 14 -100 -37 -100 -28 0 -63 33 -63 60 0 11 9 29 20 40 11 11 29 20 40
20 11 0 29 -9 40 -20z"/>
</g>
</svg>
